<svg xmlns="http://www.w3.org/2000/svg" viewBox="0 0 320 80" width="100%" height="100%">
  <!-- Icon on the left -->
  <g transform="translate(15, 10)">
    <!-- Styled Paintbrush/Roller/Layers emblem -->
    <rect x="0" y="8" width="44" height="44" rx="14" fill="#3981b7" opacity="0.15" />
    <rect x="10" y="18" width="44" height="44" rx="14" fill="#40a56d" opacity="0.2" />
    
    <!-- Painting roller silhouette -->
    <path d="M 18,22 C 18,20 20,18 22,18 L 38,18 C 40,18 42,20 42,22 L 42,32 C 42,34 40,36 38,36 L 22,36 C 20,36 18,34 18,32 Z" fill="#3981b7" />
    <path d="M 28,36 L 28,45 C 28,47 26,48 24,48 L 18,48 C 16,48 15,47 15,45" stroke="#141414" stroke-width="3" stroke-linecap="round" fill="none" />
    <path d="M 22,23 L 38,23" stroke="#ffffff" stroke-width="2.5" stroke-linecap="round" />
    <circle cx="34" cy="29" r="2.5" fill="#40a56d" />
  </g>
  
  <!-- Typography on the right -->
  <text x="85" y="36" font-family="'Inter', system-ui, sans-serif" font-weight="800" font-size="23" fill="#141414" letter-spacing="-0.5">Malerprofis</text>
  <text x="85" y="55" font-family="'Inter', system-ui, sans-serif" font-weight="500" font-size="14" fill="#3981b7" letter-spacing="3">UDERSTADT</text>
  <text x="240" y="55" font-family="'JetBrains Mono', monospace" font-weight="700" font-size="8" fill="#40a56d" letter-spacing="1">GMBH</text>
</svg>
